<svg width="24" height="24" viewBox="0 0 24 24"  xmlns="http://www.w3.org/2000/svg"                   fill="currentColor" stroke="currentColor">
<path d="M12.0002 1.89726C12.5158 1.8973 13.0227 2.03009 13.4719 2.283C13.8649 2.50426 14.2019 2.81112 14.4592 3.17949L14.5647 3.3416L23.0383 17.4861L23.0461 17.4998C23.3081 17.9534 23.447 18.4682 23.4485 18.992C23.4499 19.5157 23.3133 20.0311 23.0539 20.4861C22.7945 20.941 22.4203 21.3202 21.969 21.5857C21.5176 21.8513 21.0044 21.994 20.4807 21.9998H3.51878C2.99506 21.994 2.4819 21.8514 2.0305 21.5857C1.57913 21.3201 1.20493 20.9411 0.945537 20.4861C0.686177 20.0311 0.550562 19.5157 0.551982 18.992C0.553449 18.4682 0.692379 17.9534 0.954326 17.4998C0.956951 17.4953 0.959443 17.4906 0.962139 17.4861L9.4348 3.3416C9.7022 2.90076 10.0793 2.53596 10.5285 2.283C10.9778 2.03016 11.4847 1.89726 12.0002 1.89726ZM12.0002 3.89726C11.8284 3.89726 11.6588 3.94185 11.509 4.02617C11.3594 4.11048 11.2338 4.2319 11.1448 4.37871L2.68577 18.4998C2.59853 18.6509 2.55255 18.8224 2.55198 18.9969C2.55149 19.1713 2.59655 19.3433 2.68284 19.4949C2.76931 19.6466 2.89466 19.7736 3.04515 19.8621C3.19557 19.9506 3.36675 19.9979 3.54124 19.9998H20.4592C20.6337 19.9978 20.8049 19.9506 20.9553 19.8621C21.1058 19.7736 21.2302 19.6466 21.3166 19.4949C21.403 19.3433 21.449 19.1714 21.4485 18.9969C21.4479 18.8224 21.4009 18.6509 21.3137 18.4998L12.8547 4.37871L12.7815 4.27324C12.7016 4.17318 12.6027 4.08938 12.4905 4.02617C12.3408 3.94189 12.172 3.8973 12.0002 3.89726Z" />
<path d="M11 13V9C11 8.44772 11.4477 8 12 8C12.5523 8 13 8.44772 13 9V13C13 13.5523 12.5523 14 12 14C11.4477 14 11 13.5523 11 13Z" />
<path d="M12.0098 16C12.5621 16 13.0098 16.4477 13.0098 17C13.0098 17.5523 12.5621 18 12.0098 18H12C11.4477 18 11 17.5523 11 17C11 16.4477 11.4477 16 12 16H12.0098Z" />
</svg>
