<svg width="16" height="16" viewBox="0 0 16 16" fill="none" xmlns="http://www.w3.org/2000/svg" fill="currentColor" stroke="currentColor">
<path fill-rule="evenodd" clip-rule="evenodd" d="M5.52866 8.47136C5.40368 8.34634 5.33347 8.1768 5.33347 8.00002C5.33347 7.82325 5.40368 7.65371 5.52866 7.52869L9.3 3.75736C9.3615 3.69369 9.43506 3.6429 9.51639 3.60796C9.59773 3.57302 9.68521 3.55463 9.77373 3.55386C9.86225 3.55309 9.95004 3.56996 10.032 3.60348C10.1139 3.637 10.1883 3.6865 10.2509 3.7491C10.3135 3.81169 10.363 3.88612 10.3965 3.96806C10.4301 4.04999 10.4469 4.13777 10.4462 4.22629C10.4454 4.31481 10.427 4.40229 10.3921 4.48363C10.3571 4.56496 10.3063 4.63853 10.2427 4.70003L6.94266 8.00002L10.2427 11.3C10.3641 11.4258 10.4313 11.5942 10.4298 11.769C10.4283 11.9438 10.3581 12.111 10.2345 12.2346C10.1109 12.3582 9.94373 12.4283 9.76893 12.4298C9.59413 12.4313 9.42573 12.3641 9.3 12.2427L5.52866 8.47136Z" />
</svg>
