<svg width="12" height="12" viewBox="0 0 12 12" fill="none" xmlns="http://www.w3.org/2000/svg"   fill="currentColor" stroke="currentColor">
<path fill-rule="evenodd" clip-rule="evenodd" d="M6.35349 7.85349C6.25972 7.94722 6.13257 7.99988 5.99999 7.99988C5.86741 7.99988 5.74025 7.94722 5.64649 7.85349L2.81799 5.02499C2.77023 4.97887 2.73214 4.92369 2.70594 4.86269C2.67973 4.80169 2.66594 4.73608 2.66536 4.66969C2.66479 4.6033 2.67744 4.53746 2.70258 4.47601C2.72772 4.41456 2.76484 4.35874 2.81179 4.31179C2.85874 4.26484 2.91456 4.22772 2.97601 4.20258C3.03746 4.17744 3.1033 4.16479 3.16969 4.16536C3.23608 4.16594 3.30169 4.17973 3.36269 4.20594C3.42369 4.23214 3.47887 4.27023 3.52499 4.31799L5.99999 6.79299L8.47499 4.31799C8.56929 4.22691 8.69559 4.17651 8.82669 4.17765C8.95779 4.17879 9.08319 4.23137 9.1759 4.32408C9.2686 4.41678 9.32119 4.54219 9.32233 4.67329C9.32347 4.80439 9.27307 4.93069 9.18199 5.02499L6.35349 7.85349Z" />
</svg>
