<svg width="12" height="12" viewBox="0 0 12 12" fill="none" xmlns="http://www.w3.org/2000/svg" fill="currentColor" stroke="currentColor">
<path fill-rule="evenodd" clip-rule="evenodd" d="M5.64653 4.14652C5.74029 4.05278 5.86745 4.00012 6.00003 4.00012C6.13261 4.00012 6.25977 4.05278 6.35353 4.14652L9.18203 6.97502C9.27311 7.06932 9.32351 7.19562 9.32237 7.32672C9.32123 7.45781 9.26864 7.58322 9.17594 7.67593C9.08323 7.76863 8.95783 7.82121 8.82673 7.82235C8.69563 7.82349 8.56933 7.77309 8.47503 7.68202L6.00003 5.20702L3.52503 7.68202C3.43073 7.77309 3.30443 7.82349 3.17333 7.82235C3.04223 7.82121 2.91682 7.76863 2.82412 7.67593C2.73142 7.58322 2.67883 7.45781 2.67769 7.32672C2.67655 7.19562 2.72695 7.06932 2.81803 6.97502L5.64653 4.14652Z" />
</svg>
