<svg width="24" height="24" viewBox="0 0 24 24" fill="none" xmlns="http://www.w3.org/2000/svg"     fill="currentColor" stroke="currentColor">
<g clip-path="url(#clip0_23_6996)">
<path fill-rule="evenodd" clip-rule="evenodd" d="M21.192 5.465C21.3795 5.65252 21.4848 5.90683 21.4848 6.172C21.4848 6.43716 21.3795 6.69147 21.192 6.879L9.95001 18.122C9.84786 18.2242 9.72657 18.3053 9.59308 18.3606C9.45959 18.4159 9.31651 18.4444 9.17201 18.4444C9.02751 18.4444 8.88443 18.4159 8.75094 18.3606C8.61745 18.3053 8.49616 18.2242 8.39401 18.122L2.80801 12.536C2.7151 12.4431 2.6414 12.3328 2.59112 12.2114C2.54083 12.09 2.51495 11.9599 2.51495 11.8285C2.51495 11.6971 2.54083 11.567 2.59112 11.4456C2.6414 11.3242 2.7151 11.2139 2.80801 11.121C2.90092 11.0281 3.01122 10.9544 3.13261 10.9041C3.25401 10.8538 3.38411 10.8279 3.51551 10.8279C3.6469 10.8279 3.77701 10.8538 3.89841 10.9041C4.0198 10.9544 4.1301 11.0281 4.22301 11.121L9.17301 16.071L19.777 5.465C19.9645 5.27753 20.2188 5.17221 20.484 5.17221C20.7492 5.17221 21.0045 5.27753 21.192 5.465Z" />
</g>
<defs>
<clipPath id="clip0_23_6996">
<rect width="24" height="24" />
</clipPath>
</defs>
</svg>
