<svg width="24" height="24" viewBox="0 0 24 24" fill="none" xmlns="http://www.w3.org/2000/svg"         fill="currentColor" stroke="currentColor">
<g clip-path="url(#clip0_23_5875)">
<path d="M5.45312 5.26561C5.89202 4.93046 6.51928 5.01428 6.85449 5.45311C7.18962 5.89198 7.10575 6.51925 6.66699 6.85447C4.83216 8.25557 3.29556 10.0064 2.14355 12.0029C2.25256 12.1912 2.39593 12.4309 2.57422 12.707C3.03524 13.4208 3.71812 14.3709 4.60449 15.3164C6.39321 17.2243 8.89328 18.9945 11.9883 18.999C13.9223 18.9664 15.7956 18.3172 17.334 17.1445L17.418 17.0869C17.8501 16.8218 18.4214 16.9221 18.7354 17.334C19.07 17.7732 18.9851 18.4006 18.5459 18.7353L18.1895 18.9961C16.381 20.2638 14.2315 20.9637 12.0166 21C12.0112 21.0001 12.0054 21 12 21C8.10049 21 5.10453 18.7732 3.14551 16.6836C2.15712 15.6293 1.40223 14.579 0.894531 13.7929C0.640106 13.399 0.446272 13.0683 0.314453 12.834C0.248559 12.7168 0.19787 12.6233 0.163086 12.5576C0.145721 12.5248 0.131604 12.499 0.12207 12.4804C0.117345 12.4713 0.114115 12.4635 0.111328 12.458C0.10993 12.4552 0.108325 12.4529 0.107422 12.4512L0.106445 12.4492L0.105468 12.4482C0.105285 12.4479 0.105573 12.4472 1 12L0.105468 12.4482C-0.039833 12.1576 -0.03449 11.8136 0.11914 11.5273C1.43042 9.08364 3.24901 6.94873 5.45312 5.26561ZM12.001 3.00096C15.9 3.00133 18.8956 5.22694 20.8545 7.31639C21.8429 8.37069 22.5978 9.42093 23.1055 10.207C23.3599 10.6009 23.5537 10.9317 23.6855 11.166C23.7514 11.2831 23.8021 11.3766 23.8369 11.4424C23.8543 11.4752 23.8684 11.501 23.8779 11.5195C23.8826 11.5287 23.8859 11.5365 23.8887 11.542C23.8901 11.5447 23.8917 11.547 23.8926 11.5488L23.8936 11.5508L23.8945 11.5517C23.8947 11.5521 23.8944 11.5528 23 12L23.8945 11.5517C24.0396 11.8419 24.0347 12.1856 23.8818 12.4717C23.242 13.6685 22.4793 14.7955 21.6055 15.834L21.5352 15.9092C21.1713 16.2617 20.5923 16.2883 20.1963 15.9551C19.7737 15.5995 19.7196 14.9685 20.0752 14.5459L20.3643 14.1933C20.9169 13.5007 21.4149 12.7663 21.8564 11.998C21.7474 11.8097 21.6043 11.5694 21.4258 11.2929C20.9648 10.5791 20.2819 9.62904 19.3955 8.68357C17.6045 6.77326 15.1004 4.99998 12 4.99998H11.998C11.3686 4.9985 10.7408 5.07039 10.1279 5.21385L9.67188 3.26658C10.4356 3.08783 11.2176 2.99817 12.002 2.99998L12.001 3.00096ZM9.19824 9.14842C9.60224 8.77197 10.2348 8.79433 10.6113 9.19822C10.9878 9.60226 10.9655 10.2348 10.5615 10.6113C10.3651 10.7944 10.2079 11.0155 10.0986 11.2607C9.98932 11.5061 9.93052 11.7715 9.92578 12.04C9.92111 12.3084 9.96978 12.5753 10.0703 12.8242C10.1709 13.0732 10.3209 13.2994 10.5107 13.4892C10.7006 13.6791 10.9268 13.8291 11.1758 13.9297C11.4247 14.0302 11.6916 14.0789 11.96 14.0742C12.2285 14.0695 12.4939 14.0107 12.7393 13.9013C12.9845 13.792 13.2056 13.6349 13.3887 13.4385C13.7652 13.0344 14.3977 13.0122 14.8018 13.3887C15.2057 13.7652 15.228 14.3977 14.8516 14.8017C14.4854 15.1947 14.0434 15.5099 13.5527 15.7285C13.0623 15.947 12.5329 16.0647 11.9961 16.0742C11.459 16.0837 10.9248 15.9853 10.4268 15.7842C9.92874 15.583 9.47648 15.2831 9.09668 14.9033C8.71688 14.5235 8.417 14.0712 8.21582 13.5732C8.01464 13.0752 7.9163 12.541 7.92578 12.0039C7.9353 11.467 8.053 10.9377 8.27148 10.4472C8.4901 9.9566 8.80526 9.51461 9.19824 9.14842ZM10.1279 5.21385C9.59019 5.33971 9.05263 5.0055 8.92676 4.46775C8.80094 3.93011 9.1343 3.39256 9.67188 3.26658L10.1279 5.21385Z" />
<path d="M0.292954 0.29297C0.683479 -0.0975548 1.31649 -0.0975548 1.70702 0.29297L23.707 22.293L23.7754 22.3691C24.0957 22.7619 24.0731 23.3409 23.707 23.707C23.3409 24.0731 22.7619 24.0957 22.3691 23.7754L22.293 23.707L0.292954 1.70703C-0.09757 1.31651 -0.09757 0.683494 0.292954 0.29297Z" />
</g>
<defs>
<clipPath id="clip0_23_5875">
<rect width="24" height="24" />
</clipPath>
</defs>
</svg>
