<svg width="12" height="12" viewBox="0 0 12 12" fill="none" xmlns="http://www.w3.org/2000/svg"           fill="currentColor" stroke="currentColor">
<g clip-path="url(#clip0_39_15456)">
<path d="M4.78809 0.632436C5.87256 0.387449 7.00391 0.477456 8.0337 0.887319L8.23829 0.973257L8.28418 0.996694C8.50395 1.12271 8.59698 1.397 8.4917 1.63341C8.38636 1.86982 8.12007 1.98449 7.8794 1.90539L7.83155 1.88683L7.66407 1.81603C6.82148 1.48067 5.89564 1.40754 5.0083 1.60802C4.06178 1.82188 3.20958 2.3357 2.57911 3.07335C1.94863 3.81102 1.57362 4.733 1.50977 5.70128C1.44596 6.66951 1.69697 7.63239 2.2251 8.4464C2.75325 9.26043 3.53022 9.88208 4.44043 10.2184C5.35067 10.5547 6.34533 10.5877 7.27588 10.3126C8.20643 10.0375 9.02299 9.46871 9.60401 8.69152C10.185 7.91439 10.4994 6.97038 10.5 6.00011V5.54015C10.5 5.26401 10.7239 5.04015 11 5.04015C11.2761 5.04015 11.5 5.26401 11.5 5.54015V6.00011L11.4956 6.22228C11.4503 7.32974 11.071 8.39962 10.4053 9.29015C9.69515 10.2401 8.6969 10.9353 7.55957 11.2716C6.42221 11.6079 5.20629 11.5674 4.09375 11.1564C2.98136 10.7453 2.03173 9.98566 1.38623 8.99083C0.740716 7.99589 0.433704 6.8188 0.511722 5.63537C0.589753 4.452 1.04838 3.32549 1.81885 2.42394C2.58944 1.52235 3.63122 0.893816 4.78809 0.632436Z" />
<path d="M10.6465 1.6466C10.8417 1.45142 11.1582 1.4515 11.3535 1.6466C11.5487 1.84178 11.5486 2.15833 11.3535 2.35363L6.35351 7.35852C6.25977 7.45229 6.13259 7.50497 5.99999 7.505C5.86739 7.505 5.74025 7.45229 5.64648 7.35852L4.14648 5.85852C3.95127 5.66325 3.95124 5.34673 4.14648 5.15149C4.34173 4.9563 4.65826 4.9563 4.85351 5.15149L5.99999 6.29797L10.6465 1.6466Z" />
</g>
<defs>
<clipPath id="clip0_39_15456">
<rect width="12" height="12" />
</clipPath>
</defs>
</svg>
