<svg width="16" height="16" viewBox="0 0 16 16" fill="none" xmlns="http://www.w3.org/2000/svg"           fill="currentColor" stroke="currentColor">
<path d="M8.00015 1.26484C8.34383 1.26486 8.68179 1.35339 8.98127 1.522C9.24326 1.66951 9.46793 1.87407 9.63947 2.11966L9.70979 2.22773L15.3589 11.6574L15.3641 11.6665C15.5387 11.969 15.6313 12.3121 15.6323 12.6613C15.6333 13.0105 15.5422 13.3541 15.3693 13.6574C15.1964 13.9607 14.9469 14.2134 14.646 14.3905C14.3451 14.5675 14.0029 14.6627 13.6538 14.6665H2.34585C1.9967 14.6627 1.6546 14.5676 1.35367 14.3905C1.05275 14.2134 0.803284 13.9607 0.630358 13.6574C0.457451 13.3541 0.367041 13.0105 0.367988 12.6613C0.368966 12.3121 0.461586 11.969 0.636218 11.6665C0.637967 11.6635 0.639628 11.6604 0.641426 11.6574L6.28986 2.22773C6.46813 1.93384 6.7195 1.69064 7.01903 1.522C7.31851 1.35344 7.65649 1.26484 8.00015 1.26484ZM8.00015 2.59817C7.88557 2.59817 7.77252 2.6279 7.67268 2.68411C7.57296 2.74032 7.48921 2.82126 7.42984 2.91914L1.79051 12.3332C1.73235 12.4339 1.7017 12.5483 1.70132 12.6646C1.701 12.7809 1.73103 12.8956 1.78856 12.9966C1.84621 13.0977 1.92977 13.1824 2.0301 13.2414C2.13038 13.3004 2.2445 13.3319 2.36083 13.3332H13.6395C13.7558 13.3319 13.8699 13.3004 13.9702 13.2414C14.0705 13.1824 14.1535 13.0977 14.2111 12.9966C14.2687 12.8955 14.2993 12.7809 14.299 12.6646C14.2986 12.5483 14.2673 12.4339 14.2091 12.3332L8.56981 2.91914L8.52098 2.84882C8.46772 2.78212 8.40182 2.72625 8.32697 2.68411C8.22717 2.62792 8.11468 2.5982 8.00015 2.59817Z" />
<path d="M7.33334 8.66667V6C7.33334 5.63181 7.63182 5.33334 8.00001 5.33334C8.3682 5.33334 8.66668 5.63181 8.66668 6V8.66667C8.66668 9.03486 8.3682 9.33334 8.00001 9.33334C7.63182 9.33334 7.33334 9.03486 7.33334 8.66667Z" />
<path d="M8.00652 10.6667C8.37471 10.6667 8.67319 10.9651 8.67319 11.3333C8.67319 11.7015 8.37471 12 8.00652 12H8.00001C7.63182 12 7.33334 11.7015 7.33334 11.3333C7.33334 10.9651 7.63182 10.6667 8.00001 10.6667H8.00652Z" />
</svg>
