<svg width="12" height="12" viewBox="0 0 12 12" fill="none" xmlns="http://www.w3.org/2000/svg"                 fill="currentColor" stroke="currentColor">
<g clip-path="url(#clip0_23_5965)">
<path d="M10.5 6C10.5 3.51472 8.48528 1.5 6 1.5C3.51472 1.5 1.5 3.51472 1.5 6C1.5 8.48528 3.51472 10.5 6 10.5C8.48528 10.5 10.5 8.48528 10.5 6ZM11.5 6C11.5 9.03757 9.03757 11.5 6 11.5C2.96243 11.5 0.5 9.03757 0.5 6C0.5 2.96243 2.96243 0.5 6 0.5C9.03757 0.5 11.5 2.96243 11.5 6Z" />
<path d="M5.5 8V6C5.5 5.72386 5.72386 5.5 6 5.5C6.27614 5.5 6.5 5.72386 6.5 6V8C6.5 8.27614 6.27614 8.5 6 8.5C5.72386 8.5 5.5 8.27614 5.5 8Z" />
<path d="M6.00488 3.5C6.28103 3.5 6.50488 3.72386 6.50488 4C6.50488 4.27614 6.28103 4.5 6.00488 4.5H6C5.72386 4.5 5.5 4.27614 5.5 4C5.5 3.72386 5.72386 3.5 6 3.5H6.00488Z" />
</g>
<defs>
<clipPath id="clip0_23_5965">
<rect width="12" height="12" />
</clipPath>
</defs>
</svg>
