<svg width="12" height="12" viewBox="0 0 12 12" fill="none" xmlns="http://www.w3.org/2000/svg"               fill="currentColor" stroke="currentColor">
<path d="M6.0001 0.94873C6.25786 0.94875 6.51132 1.01514 6.73594 1.1416C6.93243 1.25223 7.10093 1.40566 7.22959 1.58984L7.28232 1.6709L11.5191 8.74316L11.523 8.75C11.654 8.97682 11.7235 9.23418 11.7242 9.49609C11.7249 9.75796 11.6566 10.0157 11.527 10.2432C11.3973 10.4706 11.2101 10.6602 10.9845 10.793C10.7588 10.9257 10.5022 10.9971 10.2403 11H1.75937C1.49751 10.9971 1.24094 10.9258 1.01523 10.793C0.789549 10.6602 0.602447 10.4706 0.472753 10.2432C0.343073 10.0157 0.275266 9.75796 0.275976 9.49609C0.276709 9.23418 0.346174 8.97682 0.477148 8.75C0.47846 8.74773 0.479706 8.74541 0.481054 8.74316L4.71738 1.6709C4.85109 1.45048 5.03961 1.26808 5.26426 1.1416C5.48886 1.01518 5.74235 0.94873 6.0001 0.94873ZM6.0001 1.94873C5.91416 1.94873 5.82937 1.97102 5.75449 2.01318C5.6797 2.05534 5.61689 2.11605 5.57236 2.18945L1.34287 9.25C1.29925 9.32554 1.27626 9.41131 1.27598 9.49854C1.27573 9.58575 1.29826 9.67177 1.34141 9.74756C1.38464 9.82341 1.44731 9.88688 1.52256 9.93115C1.59777 9.97538 1.68336 9.99904 1.7706 10H10.2296C10.3169 9.99902 10.4024 9.97541 10.4776 9.93115C10.5529 9.88688 10.6151 9.8234 10.6583 9.74756C10.7015 9.67174 10.7245 9.58579 10.7242 9.49854C10.7239 9.41131 10.7005 9.32554 10.6568 9.25L6.42734 2.18945L6.39072 2.13672C6.35077 2.08669 6.30135 2.04479 6.24521 2.01318C6.17037 1.97104 6.08599 1.94875 6.0001 1.94873Z" />
<path d="M5.5 6.5V4.5C5.5 4.22386 5.72386 4 6 4C6.27614 4 6.5 4.22386 6.5 4.5V6.5C6.5 6.77614 6.27614 7 6 7C5.72386 7 5.5 6.77614 5.5 6.5Z" />
<path d="M6.00488 8C6.28103 8 6.50488 8.22386 6.50488 8.5C6.50488 8.77614 6.28103 9 6.00488 9H6C5.72386 9 5.5 8.77614 5.5 8.5C5.5 8.22386 5.72386 8 6 8H6.00488Z" />
</svg>
