<svg width="12" height="12" viewBox="0 0 12 12" fill="none" xmlns="http://www.w3.org/2000/svg">
<path fill-rule="evenodd" clip-rule="evenodd" d="M10.596 2.73251C10.6897 2.82628 10.7424 2.95343 10.7424 3.08601C10.7424 3.2186 10.6897 3.34575 10.596 3.43951L4.975 9.06101C4.92393 9.11211 4.86329 9.15265 4.79654 9.18031C4.72979 9.20796 4.65825 9.2222 4.586 9.2222C4.51376 9.2222 4.44222 9.20796 4.37547 9.18031C4.30872 9.15265 4.24808 9.11211 4.197 9.06101L1.404 6.26801C1.35755 6.22156 1.3207 6.16641 1.29556 6.10571C1.27042 6.04502 1.25748 5.97996 1.25748 5.91426C1.25748 5.84857 1.27042 5.78351 1.29556 5.72282C1.3207 5.66212 1.35755 5.60697 1.404 5.56051C1.45046 5.51406 1.50561 5.47721 1.56631 5.45207C1.627 5.42693 1.69206 5.41399 1.75775 5.41399C1.82345 5.41399 1.88851 5.42693 1.9492 5.45207C2.0099 5.47721 2.06505 5.51406 2.1115 5.56051L4.5865 8.03551L9.8885 2.73251C9.98227 2.63878 10.1094 2.58612 10.242 2.58612C10.3746 2.58612 10.5022 2.63878 10.596 2.73251Z" fill="white"/>
</svg>
