<svg xmlns="http://www.w3.org/2000/svg" style="display:none">
<symbol id="icon-Add" viewBox="0 0 24 24"><path d="M0 0h24v24H0z"/><path d="M19 13h-6v6h-2v-6H5v-2h6V5h2v6h6z"/></symbol>
<symbol id="icon-AlertTriangle" viewBox="0 0 24 24"><path d="M12 1.897a3 3 0 0 1 2.46 1.282l.105.163 8.473 14.144.008.014a3 3 0 0 1-1.077 4.086 3 3 0 0 1-1.488.414H3.519a3 3 0 0 1-2.565-4.5l.008-.014L9.435 3.342A3 3 0 0 1 12 1.897m0 2a1 1 0 0 0-.855.482l-8.46 14.12a1 1 0 0 0 .856 1.5H20.46a1 1 0 0 0 .855-1.5l-8.46-14.12-.072-.106A1 1 0 0 0 12 3.897"/><path d="M11 13V9a1 1 0 1 1 2 0v4a1 1 0 1 1-2 0m1.01 3a1 1 0 1 1 0 2H12a1 1 0 1 1 0-2z"/></symbol>
<symbol id="icon-ArrowDown" viewBox="0 0 24 24"><path d="M0 0h24v24H0z"/><path d="M7.41 8.59 12 13.17l4.59-4.58L18 10l-6 6-6-6z"/></symbol>
<symbol id="icon-ArrowLeft" viewBox="0 0 24 24"><path d="M0 0h24v24H0z"/><path d="M15.41 16.59 10.83 12l4.58-4.59L14 6l-6 6 6 6z"/></symbol>
<symbol id="icon-ArrowLeftCircleLine" viewBox="0 0 24 24"><g clip-path="url(#a)"><path d="M12 2c5.523 0 10 4.477 10 10s-4.477 10-10 10S2 17.523 2 12 6.477 2 12 2m0 2a8 8 0 1 0 0 16 8 8 0 0 0 0-16m-1.419 3.757a1 1 0 0 1 1.498 1.32l-.084.094-1.828 1.83h6.076a1 1 0 0 1 .116 1.992l-.116.007h-6.076l1.829 1.828a1 1 0 0 1-1.32 1.498l-.095-.084-3.535-3.535a1 1 0 0 1-.083-1.32l.083-.094z"/></g><defs><clipPath id="a"><path d="M0 0h24v24H0z"/></clipPath></defs></symbol>
<symbol id="icon-ArrowRight" viewBox="0 0 24 24"><path d="M0 0h24v24H0z"/><path d="M8.59 16.59 13.17 12 8.59 7.41 10 6l6 6-6 6z"/></symbol>
<symbol id="icon-ArrowUp" viewBox="0 0 24 24"><path d="M0 0h24v24H0z"/><path d="m12 8-6 6 1.41 1.41L12 10.83l4.59 4.58L18 14z"/></symbol>
<symbol id="icon-BookmarkFill" viewBox="0 0 24 24"><g clip-path="url(#a)"><path d="M4 5a3 3 0 0 1 3-3h10a3 3 0 0 1 3 3v16.028c0 1.22-1.38 1.93-2.372 1.221L12 18.229l-5.628 4.02c-.993.71-2.372 0-2.372-1.22z"/></g><defs><clipPath id="a"><path d="M0 0h24v24H0z"/></clipPath></defs></symbol>
<symbol id="icon-BookmarkLine" viewBox="0 0 24 24"><g clip-path="url(#a)"><path fill-rule="evenodd" d="M4 5a3 3 0 0 1 3-3h10a3 3 0 0 1 3 3v16.028c0 1.22-1.38 1.93-2.372 1.221L12 18.229l-5.628 4.02c-.993.71-2.372 0-2.372-1.22zm3-1a1 1 0 0 0-1 1v15.057l5.128-3.663a1.5 1.5 0 0 1 1.744 0L18 20.057V5a1 1 0 0 0-1-1z" clip-rule="evenodd"/></g><defs><clipPath id="a"><path d="M0 0h24v24H0z"/></clipPath></defs></symbol>
<symbol id="icon-CheckLine" viewBox="0 0 24 24"><g clip-path="url(#a)"><path fill-rule="evenodd" d="M21.192 5.465a1 1 0 0 1 0 1.414L9.95 18.122a1.1 1.1 0 0 1-1.556 0l-5.586-5.586a1 1 0 1 1 1.415-1.415l4.95 4.95L19.777 5.465a1 1 0 0 1 1.415 0" clip-rule="evenodd"/></g><defs><clipPath id="a"><path d="M0 0h24v24H0z"/></clipPath></defs></symbol>
<symbol id="icon-ClipboardLine" viewBox="0 0 24 24"><g clip-path="url(#a)"><path d="M15 2c.683 0 1.287.343 1.647.866l.085.134H18a2 2 0 0 1 1.995 1.85L20 5v12a5 5 0 0 1-4.783 4.995L15 22H6a2 2 0 0 1-1.995-1.85L4 20V5a2 2 0 0 1 1.85-1.995L6 3h1.268a2 2 0 0 1 1.563-.993L9 2zM7 5H6v15h9a3 3 0 0 0 3-3V5h-1a2 2 0 0 1-2 2H9a2 2 0 0 1-2-2m5 9a1 1 0 0 1 .117 1.993L12 16H9a1 1 0 0 1-.117-1.993L9 14zm3-4a1 1 0 0 1 0 2H9a1 1 0 0 1 0-2zm0-6H9v1h6z"/></g><defs><clipPath id="a"><path d="M0 0h24v24H0z"/></clipPath></defs></symbol>
<symbol id="icon-CloseCircleFill" viewBox="0 0 24 24"><g clip-path="url(#a)"><path d="M12 2c5.523 0 10 4.477 10 10s-4.477 10-10 10S2 17.523 2 12 6.477 2 12 2M9.879 8.464a1 1 0 0 0-1.498 1.32l.084.095 2.12 2.12-2.12 2.122a1 1 0 0 0 1.32 1.498l.094-.083L12 13.414l2.121 2.122a1 1 0 0 0 1.498-1.32l-.083-.095L13.414 12l2.122-2.121a1 1 0 0 0-1.32-1.498l-.095.083L12 10.586z"/></g><defs><clipPath id="a"><path d="M0 0h24v24H0z"/></clipPath></defs></symbol>
<symbol id="icon-CloseLine" viewBox="0 0 24 24"><path d="M0 0h24v24H0z"/><path d="M19 6.41 17.59 5 12 10.59 6.41 5 5 6.41 10.59 12 5 17.59 6.41 19 12 13.41 17.59 19 19 17.59 13.41 12z"/></symbol>
<symbol id="icon-Download" viewBox="0 0 24 24"><path d="M0 0h24v24H0z"/><path d="M5 20h14v-2H5zM19 9h-4V3H9v6H5l7 7z"/></symbol>
<symbol id="icon-Eye" viewBox="0 0 24 24"><g clip-path="url(#a)"><path d="M12 3c3.9 0 6.895 2.227 8.855 4.316a20.7 20.7 0 0 1 2.83 3.85q.1.176.152.276l.04.078.012.022.004.007v.002h.002c0 .001 0 .002-.895.449l.895.448-.001.001-.001.002-.004.007-.011.022-.041.078-.151.276a20.7 20.7 0 0 1-2.831 3.85C18.895 18.774 15.899 21 12 21s-6.895-2.227-8.854-4.316a20.7 20.7 0 0 1-2.832-3.85q-.098-.176-.15-.276l-.042-.078-.01-.022-.005-.007v-.002H.104c0-.001 0-.002.895-.449a122 122 0 0 1-.895-.448l.001-.001.001-.002.004-.007.011-.022.041-.078.151-.276a20.7 20.7 0 0 1 2.831-3.85C5.106 5.226 8.1 3 12 3m0 2C8.9 5 6.395 6.773 4.604 8.684A18.7 18.7 0 0 0 2.142 12a18.7 18.7 0 0 0 2.463 3.316C6.394 17.226 8.9 19 12 19s5.605-1.773 7.395-3.684A18.7 18.7 0 0 0 21.857 12a18.7 18.7 0 0 0-2.462-3.316C17.606 6.774 15.1 5 12 5M1 12l-.895.447a1 1 0 0 1 0-.894zm22.895-.447a1 1 0 0 1 0 .894L23 12z"/><path d="M14 12a2 2 0 1 0-4 0 2 2 0 0 0 4 0m2 0a4 4 0 1 1-8 0 4 4 0 0 1 8 0"/></g><defs><clipPath id="a"><path d="M0 0h24v24H0z"/></clipPath></defs></symbol>
<symbol id="icon-EyeOff" viewBox="0 0 24 24"><g clip-path="url(#a)"><path d="M5.453 5.266a1 1 0 1 1 1.214 1.588 17.5 17.5 0 0 0-4.523 5.149 18.7 18.7 0 0 0 2.46 3.313c1.79 1.908 4.29 3.678 7.384 3.683a9.07 9.07 0 0 0 5.346-1.854l.084-.058a1 1 0 0 1 1.128 1.648l-.357.261A11.07 11.07 0 0 1 12.017 21H12c-3.9 0-6.895-2.227-8.854-4.316a20.7 20.7 0 0 1-2.832-3.85l-.15-.276-.042-.078-.01-.022-.005-.007v-.002H.104c0-.001 0-.002.895-.449l-.895.448a1 1 0 0 1 .014-.92 19.45 19.45 0 0 1 5.334-6.262ZM12.001 3c3.899 0 6.895 2.226 8.854 4.315a20.7 20.7 0 0 1 2.83 3.85q.1.176.152.276l.04.078.012.022.004.007v.002h.002c0 .001 0 .002-.895.449l.895-.448c.145.29.14.634-.013.92a19.5 19.5 0 0 1-2.277 3.362l-.07.075a1 1 0 0 1-1.46-1.363l.29-.353a17.5 17.5 0 0 0 1.491-2.195 18.7 18.7 0 0 0-2.46-3.314C17.604 6.774 15.1 5 12 5h-.002a8 8 0 0 0-1.87.214l-.456-1.947A10 10 0 0 1 12.002 3zM9.198 9.148a1 1 0 0 1 1.364 1.463 2.002 2.002 0 0 0 1.398 3.463 2 2 0 0 0 1.429-.636 1 1 0 1 1 1.463 1.364 4 4 0 1 1-5.654-5.654m.93-3.934a1 1 0 0 1-.456-1.947z"/><path d="M.293.293a1 1 0 0 1 1.414 0l22 22 .068.076a1 1 0 0 1-1.406 1.406l-.076-.068-22-22a1 1 0 0 1 0-1.414"/></g><defs><clipPath id="a"><path d="M0 0h24v24H0z"/></clipPath></defs></symbol>
<symbol id="icon-File" viewBox="0 0 24 24"><path d="M0 0h24v24H0z"/><path d="M19 3H5c-1.1 0-2 .9-2 2v14c0 1.1.9 2 2 2h14c1.1 0 2-.9 2-2V5c0-1.1-.9-2-2-2m-5 14H7v-2h7zm3-4H7v-2h10zm0-4H7V7h10z"/></symbol>
<symbol id="icon-Filter" viewBox="0 0 24 24"><path d="M0 0h24m0 24H0M4.25 5.61C6.27 8.2 10 13 10 13v6c0 .55.45 1 1 1h2c.55 0 1-.45 1-1v-6s3.72-4.8 5.74-7.39A.998.998 0 0 0 18.95 4H5.04c-.83 0-1.3.95-.79 1.61"/><path d="M0 0h24v24H0z"/></symbol>
<symbol id="icon-FirstPageArrow" viewBox="0 0 24 24"><path d="M18.41 16.59 13.82 12l4.59-4.59L17 6l-6 6 6 6zM6 6h2v12H6z"/><path d="M24 24H0V0h24z"/></symbol>
<symbol id="icon-Folder" viewBox="0 0 24 24"><path d="M0 0h24v24H0z"/><path d="M20 6h-8l-2-2H4c-1.1 0-1.99.9-1.99 2L2 18c0 1.1.9 2 2 2h16c1.1 0 2-.9 2-2V8c0-1.1-.9-2-2-2m0 12H4V8h16z"/></symbol>
<symbol id="icon-LastPageArrow" viewBox="0 0 24 24"><path d="M0 0h24v24H0z"/><path d="M5.59 7.41 10.18 12l-4.59 4.59L7 18l6-6-6-6zM16 6h2v12h-2z"/></symbol>
<symbol id="icon-SearchLine" viewBox="0 0 24 24"><g clip-path="url(#a)"><path fill-rule="evenodd" d="M10.5 2a8.5 8.5 0 1 0 5.262 15.176l3.652 3.652a1 1 0 0 0 1.414-1.414l-3.652-3.652A8.5 8.5 0 0 0 10.5 2M4 10.5a6.5 6.5 0 1 1 13 0 6.5 6.5 0 0 1-13 0" clip-rule="evenodd"/></g><defs><clipPath id="a"><path d="M0 0h24v24H0z"/></clipPath></defs></symbol>
<symbol id="icon-StarGlyph" viewBox="0 0 24 24"><path d="M12.912 1.59a1 1 0 0 0-1.825 0L8.27 7.868l-6.84.74a1 1 0 0 0-.563 1.735l5.099 4.619-1.41 6.733a1 1 0 0 0 1.476 1.073L12 19.345l5.968 3.422a1 1 0 0 0 1.476-1.073l-1.41-6.733 5.099-4.619a1 1 0 0 0-.564-1.735l-6.84-.74z"/></symbol>
<symbol id="icon-StarOutLine" viewBox="0 0 24 24"><path d="M11.27 4.411c.23-.52.346-.779.508-.859a.5.5 0 0 1 .444 0c.161.08.277.34.508.86l1.845 4.136c.068.154.102.23.155.29a.5.5 0 0 0 .168.121c.072.032.156.041.323.059l4.505.475c.565.06.848.09.974.218a.5.5 0 0 1 .137.423c-.026.178-.237.368-.66.75l-3.364 3.031c-.125.113-.188.17-.227.238a.5.5 0 0 0-.064.197c-.009.079.009.161.044.326l.94 4.43c.117.557.176.835.093.994a.5.5 0 0 1-.36.261c-.177.03-.423-.111-.916-.396l-3.924-2.263c-.145-.084-.218-.126-.295-.142a.5.5 0 0 0-.208 0c-.078.017-.15.058-.296.142l-3.923 2.263c-.493.285-.74.427-.917.396a.5.5 0 0 1-.36-.26c-.083-.16-.024-.438.094-.995l.94-4.43c.035-.165.052-.247.044-.326a.5.5 0 0 0-.064-.197c-.04-.069-.102-.125-.227-.238l-3.365-3.032c-.422-.38-.633-.57-.66-.749a.5.5 0 0 1 .138-.423c.126-.128.409-.158.974-.218l4.504-.475c.168-.018.251-.027.323-.059a.5.5 0 0 0 .168-.122c.053-.059.088-.135.156-.289z"/></symbol>
<symbol id="icon-StatusDefault" viewBox="0 0 12 12"><g clip-path="url(#a)"><path d="M10.5 6a4.5 4.5 0 1 0-9 0 4.5 4.5 0 0 0 9 0m1 0a5.5 5.5 0 1 1-11 0 5.5 5.5 0 0 1 11 0"/><path d="M5.5 8V6a.5.5 0 0 1 1 0v2a.5.5 0 0 1-1 0m.505-4.5a.5.5 0 1 1 0 1H6a.5.5 0 0 1 0-1z"/></g><defs><clipPath id="a"><path d="M0 0h12v12H0z"/></clipPath></defs></symbol>
<symbol id="icon-StatusError" viewBox="0 0 12 12"><path d="M6 .949a1.5 1.5 0 0 1 1.23.64l.052.082 4.237 7.072.004.007A1.5 1.5 0 0 1 10.24 11H1.76A1.5 1.5 0 0 1 .476 8.75l.004-.007 4.236-7.072A1.5 1.5 0 0 1 6 .949m0 1a.5.5 0 0 0-.428.24L1.342 9.25a.5.5 0 0 0 .429.75h8.459a.5.5 0 0 0 .427-.75l-4.23-7.06-.036-.053A.5.5 0 0 0 6 1.949"/><path d="M5.5 6.5v-2a.5.5 0 0 1 1 0v2a.5.5 0 0 1-1 0M6.005 8a.5.5 0 1 1 0 1H6a.5.5 0 0 1 0-1z"/></symbol>
<symbol id="icon-StatusInfo" viewBox="0 0 12 12"><g clip-path="url(#a)"><path d="M10.5 6a4.5 4.5 0 1 0-9 0 4.5 4.5 0 0 0 9 0m1 0a5.5 5.5 0 1 1-11 0 5.5 5.5 0 0 1 11 0"/><path d="M5.5 8V6a.5.5 0 0 1 1 0v2a.5.5 0 0 1-1 0m.505-4.5a.5.5 0 1 1 0 1H6a.5.5 0 0 1 0-1z"/></g><defs><clipPath id="a"><path d="M0 0h12v12H0z"/></clipPath></defs></symbol>
<symbol id="icon-StatusSuccess" viewBox="0 0 12 12"><g clip-path="url(#a)"><path d="M4.788.632a5.5 5.5 0 0 1 3.246.255l.204.086.046.024a.5.5 0 0 1-.405.908l-.047-.018-.168-.071A4.5 4.5 0 1 0 10.5 6v-.46a.5.5 0 0 1 1 0V6l-.004.222A5.5 5.5 0 1 1 4.788.632"/><path d="M10.647 1.647a.5.5 0 0 1 .707.707l-5 5.005a.5.5 0 0 1-.708 0l-1.5-1.5a.5.5 0 0 1 .708-.708L6 6.298z"/></g><defs><clipPath id="a"><path d="M0 0h12v12H0z"/></clipPath></defs></symbol>
<symbol id="icon-StatusWarning" viewBox="0 0 16 16"><path d="M8 1.265a2 2 0 0 1 1.64.855l.07.108 5.649 9.43.005.008a2 2 0 0 1-.718 2.724 2 2 0 0 1-.992.276H2.346a2 2 0 0 1-1.71-3l.005-.009 5.649-9.43A2 2 0 0 1 8 1.266Zm0 1.333a.67.67 0 0 0-.57.321l-5.64 9.414a.667.667 0 0 0 .57 1h11.28a.667.667 0 0 0 .57-1L8.57 2.92l-.049-.07a.67.67 0 0 0-.52-.25Z"/><path d="M7.333 8.667V6a.667.667 0 0 1 1.334 0v2.667a.667.667 0 0 1-1.334 0m.674 2a.667.667 0 1 1 0 1.333H8a.667.667 0 0 1 0-1.333z"/></symbol>
<symbol id="icon-ViewColumn" viewBox="0 0 24 24"><path d="M0 0h24v24H0z"/><path d="M14.67 5v14H9.33V5zm1 14H21V5h-5.33zm-7.34 0V5H3v14z"/></symbol>
<symbol id="icon-reset" viewBox="0 0 24 24"><path d="M0 0h24v24H0z"/><path d="M12 5V1L7 6l5 5V7c3.31 0 6 2.69 6 6s-2.69 6-6 6-6-2.69-6-6H4c0 4.42 3.58 8 8 8s8-3.58 8-8-3.58-8-8-8"/></symbol>
</svg>
